<svg xmlns="http://www.w3.org/2000/svg" xmlns:xlink="http://www.w3.org/1999/xlink" viewBox="0,0,256,256" width="24px" height="24px"><g fill="#000000" fill-rule="nonzero" stroke="none" stroke-width="1" stroke-linecap="butt" stroke-linejoin="miter" stroke-miterlimit="10" stroke-dasharray="" stroke-dashoffset="0" font-family="none" font-weight="none" font-size="none" text-anchor="none" style="mix-blend-mode: normal"><path d="M0,256v-256h256v256z" id="bgRectangle"></path></g><g fill="#ffffff" fill-rule="nonzero" stroke="none" stroke-width="1" stroke-linecap="butt" stroke-linejoin="miter" stroke-miterlimit="10" stroke-dasharray="" stroke-dashoffset="0" font-family="none" font-weight="none" font-size="none" text-anchor="none" style="mix-blend-mode: normal"><g transform="scale(10.66667,10.66667)"><path d="M17,3h-10c-2.2,0 -4,1.8 -4,4v10c0,2.2 1.8,4 4,4h10c2.2,0 4,-1.8 4,-4v-10c0,-2.2 -1.8,-4 -4,-4zM17,15h-0.01c0.01,0.04 0.01,0.08 0.01,0.12c0,1.04 -1.12,1.88 -2.5,1.88c-1.38,0 -2.5,-0.96 -2.5,-2c0,-1.03 1,-2 2,-2c0.17,0 1,0 1,0v-3.5l-4,1v5.5h-0.01c0.01,0.04 0.01,0.08 0.01,0.12c0,1.04 -1.12,1.88 -2.5,1.88c-1.38,0 -2.5,-0.96 -2.5,-2c0,-1.03 1,-2 2,-2c0.17,0 1,0 1,0c0,-1 0,-5.22 0,-5.22c0,-0.46 0.31,-0.86 0.76,-0.97l6,-1.5c0.63,-0.16 1.24,0.32 1.24,0.97z"></path></g></g></svg>